<svg width="173" height="55" viewBox="0 0 173 55" fill="none" xmlns="http://www.w3.org/2000/svg">
<g clip-path="url(#clip0_9303_4449)">
<path d="M106.622 30.2987C107.463 30.2853 108.176 30.2787 109.013 30.3287C109.597 32.0876 110.493 34.1269 111.173 35.883C112.221 38.5904 113.297 41.2966 114.299 44.0224C114.5 44.5689 114.578 44.4575 114.66 44.6558C114.263 44.8963 112.506 44.8454 111.97 44.8296C111.506 43.6848 111.069 42.3997 110.604 41.2189L108.55 41.1877C107.186 41.1731 105.813 41.2352 104.456 41.201C104.082 42.274 103.531 43.7961 103.065 44.8119C102.234 44.8911 101.426 44.8167 100.598 44.7572C100.87 44.1416 101.334 42.7319 101.614 42.0134L104.74 33.9534C105.162 32.8682 105.621 31.651 106.085 30.5735C106.172 30.3738 106.413 30.3537 106.622 30.2987ZM105.369 38.851C106.19 38.8709 107.013 38.8813 107.835 38.882L109.672 38.893C109.414 38.0807 107.907 33.4137 107.467 33.1718C107.454 33.1649 107.441 33.1592 107.427 33.1529C106.703 34.961 106.141 36.9638 105.369 38.851Z" fill="white" fill-opacity="0.956863"/>
<path d="M137.795 34.7403C140.632 34.0821 143.461 35.8631 144.092 38.7046C144.724 41.5462 142.916 44.3571 140.067 44.9616C137.256 45.5582 134.489 43.7798 133.866 40.9759C133.243 38.1721 134.995 35.3898 137.795 34.7403ZM139.638 42.9207C142.766 41.7589 142.5 36.3772 138.291 36.8522C137.584 37.0796 136.868 37.4333 136.592 38.1511C135.56 40.8318 136.679 43.169 139.638 42.9207Z" fill="white" fill-opacity="0.956863"/>
<path d="M165.855 34.6649C170.876 34.1754 173.44 38.0512 171.384 42.7302C170.846 43.9519 169.255 44.7091 168 45.0383C166.753 45.2638 165.405 45.0115 164.307 44.3866C163.229 43.7598 162.439 42.7357 162.107 41.5338C161.243 38.3735 162.655 35.5429 165.855 34.6649ZM167.626 42.9318C168.427 42.6179 169.18 42.147 169.467 41.3113C170.315 38.8418 169.237 36.6038 166.499 36.8437C163.032 37.6661 163.508 43.3409 167.626 42.9318Z" fill="white" fill-opacity="0.956863"/>
<path d="M69.1195 9.53974C71.4049 9.4408 73.4949 9.91382 75.1273 11.6887C75.5576 12.1567 76.2434 13.4719 76.2808 14.1002C76.3051 14.5092 74.6547 14.5662 74.4083 14.983C74.3829 15.0179 74.2581 15.0128 74.192 15.0173C73.1838 11.7375 69.7014 11.0562 66.9717 12.8783C64.8252 14.3109 64.5826 18.4985 66.1997 20.4647C67.9413 22.5821 70.7826 22.8474 72.9675 21.1484C73.5764 20.417 73.8578 20.0095 74.2234 19.1101C75.0111 19.2901 75.7039 19.5738 76.451 19.8702C75.3354 22.6097 73.9879 24.1674 70.8586 24.5661C68.9066 24.801 66.94 24.2646 65.3778 23.0713C60.493 19.2903 62.2841 10.3777 69.1195 9.53974Z" fill="white" fill-opacity="0.956863"/>
<path d="M67.5682 30.0454C70.2089 29.8971 72.4499 31.1032 73.0288 33.8006C72.6957 33.8744 72.3891 33.9588 72.0716 34.0842C71.9701 34.1243 71.0038 34.4399 70.9522 34.3671C70.4541 33.6595 70.1902 32.7737 69.2946 32.4776C67.8497 31.9998 65.6089 32.4137 65.5448 34.2829C65.5303 34.7049 65.8044 35.2007 65.9973 35.5977C68.4613 37.0052 73.2996 36.2545 73.1473 40.8939C73.0481 43.9179 70.3231 45.2139 67.5969 45.1145C64.8891 44.6968 62.8255 43.6515 62.498 40.6494C63.251 40.4852 63.9835 40.2884 64.7324 40.1143C65.2231 42.2674 66.4532 42.9958 68.5944 42.8486C70.2948 42.7316 71.4548 40.8474 70.1058 39.6608C68.7625 38.4791 65.9811 38.8334 64.5503 37.6171C62.7788 36.2722 62.6906 33.6532 63.9299 31.9106C64.815 30.7275 66.1242 30.2306 67.5682 30.0454Z" fill="white" fill-opacity="0.956863"/>
<path d="M121.504 14.0743C122.528 14.0696 123.76 14.2403 124.575 14.8967C126.041 16.0779 125.899 17.8404 125.908 19.5174C125.915 21.0738 125.822 22.7303 125.997 24.267C125.031 24.2981 123.817 24.7123 123.651 23.5244L123.541 23.4591C123.051 23.7369 122.424 24.1983 121.91 24.3695C119.795 25.0733 118.115 24.3223 117.342 22.2875C117.285 21.5463 117.264 20.9214 117.593 20.2515C118.492 18.4195 121.162 18.645 122.834 18.1638C123.072 18.0774 123.333 17.9298 123.441 17.6887C123.606 17.3214 123.392 16.9154 123.25 16.5729C122.635 16.2609 122.417 16.187 121.767 15.9961C121.118 16.2246 120.829 16.2437 120.162 16.5779C119.848 17.0653 119.794 17.2374 119.624 17.7968C118.886 17.6587 118.161 17.4818 117.469 17.1887C118.139 14.8954 119.224 14.2899 121.504 14.0743ZM120.345 22.5984C121.203 22.7325 121.878 22.771 122.625 22.2473C123.268 21.7968 123.818 20.6445 123.453 19.8935C123.286 19.8338 123.222 19.8497 123.053 19.867C122.186 19.9847 120.52 20.0468 119.914 20.7661C119.548 21.2 119.677 22.1676 120.178 22.5C120.232 22.5352 120.287 22.5681 120.345 22.5984Z" fill="white" fill-opacity="0.956863"/>
<path d="M78.7781 34.5859C81.7023 34.626 83.0834 35.7287 83.1294 38.7462C83.1597 40.7335 83.0639 42.8265 83.1811 44.7983C82.7166 44.8505 81.7039 44.9031 81.2655 44.8009C81.0406 44.594 81.0445 44.2893 80.9025 43.9396C79.3807 44.8384 78.1245 45.6034 76.2625 44.7899C75.4133 44.419 74.9236 43.726 74.6132 42.8724C74.0783 38.9479 77.7359 39.2986 80.385 38.5702C80.6092 38.5108 80.865 38.2302 80.8376 37.9901C80.6852 36.6587 78.9312 36.302 77.9185 36.82C77.2281 37.173 77.041 37.6467 76.8286 38.2922C76.1733 38.225 75.3991 37.9539 74.6682 37.847C75.3514 35.5418 76.4354 34.7427 78.7781 34.5859ZM77.2871 41.0128C76.9138 41.679 76.6218 42.4623 77.3932 43.0006C78.1621 43.242 78.8367 43.3457 79.5912 42.9559C80.1135 42.6817 80.506 42.2118 80.6825 41.6491C80.7853 41.318 80.8275 40.8247 80.7881 40.4794L80.6594 40.3807C79.5486 40.5014 78.2888 40.5554 77.2871 41.0128Z" fill="white" fill-opacity="0.956863"/>
<path d="M90.2149 34.6632C90.5026 34.6316 90.7919 34.617 91.0803 34.6194C93.9741 34.6167 94.6797 36.9404 94.6318 39.3804C94.5973 41.1737 94.6141 43.0066 94.6023 44.8036C93.6596 44.8579 93.171 44.8309 92.2232 44.7692C92.2594 43.1263 92.2451 41.4377 92.2543 39.7908C92.2602 38.5822 92.2064 37.8692 91.3477 37.0274C90.5177 36.779 90.0737 36.7754 89.2478 36.9858C88.0696 37.6588 88.0419 39.2719 88.0578 40.4539C88.0772 41.9001 88.0679 43.3501 88.0587 44.7966C87.2 44.8928 86.566 44.853 85.7208 44.7683C85.6728 43.7779 85.7132 42.4612 85.7124 41.4456L85.7208 34.8924C86.5205 34.8436 87.237 34.8719 88.0377 34.8963C88.0217 35.2747 88.004 35.6529 87.983 36.0309C88.8736 35.2432 89.083 34.9915 90.2149 34.6632Z" fill="white" fill-opacity="0.956863"/>
<path d="M107.82 14.3927C108.602 14.3367 109.38 14.3612 110.164 14.3732L110.172 17.3582C110.164 19.6643 110.17 21.9704 110.192 24.2763C109.448 24.2969 108.688 24.2823 107.943 24.2759C107.949 23.9687 107.947 23.8939 107.867 23.5982C107.383 23.5703 106.282 24.7193 104.988 24.6064C100.993 24.2576 101.241 20.7585 101.25 17.7826L101.264 14.3902C102.104 14.3508 102.818 14.3647 103.66 14.3876C103.649 14.6511 103.643 14.9148 103.643 15.1784C103.633 16.9774 103.469 19.4488 103.894 21.2103C103.977 21.5554 104.386 21.9937 104.638 22.248C106.102 22.7416 107.533 22.1722 107.715 20.6566C107.942 18.7669 107.813 16.3121 107.82 14.3927Z" fill="white" fill-opacity="0.956863"/>
<path d="M94.178 14.1556C95.4025 14.0267 96.8809 14.1074 97.8875 14.867C99.9177 16.3979 100.306 17.5693 97.5066 18.032C97.2913 17.4959 97.2097 17.3063 96.8935 16.8279C96.1854 16.4397 95.336 16.2966 94.5346 16.4195C92.01 16.7285 91.761 20.8663 93.6995 22.0156C95.2772 22.9504 96.5664 22.3711 97.4814 20.9754L97.626 20.7529C98.086 20.6237 99.2365 21.2274 99.704 21.4369C99.5947 21.7206 99.4307 22.1541 99.2743 22.4066C98.6343 23.4513 97.6025 24.1958 96.4091 24.473C95.0434 24.7923 93.6078 24.5576 92.4153 23.8204C91.2606 23.0943 90.4584 21.8301 90.164 20.512C89.8419 19.0462 90.1203 17.5124 90.9369 16.2532C91.8157 14.8894 92.6895 14.4813 94.178 14.1556Z" fill="white" fill-opacity="0.956863"/>
<path d="M118.414 36.0696C119.738 34.5685 121.174 34.192 123.064 34.9718C123.067 34.9814 123.07 34.991 123.073 35.0005C123.352 35.8306 124.172 36.4187 124.506 37.2621C124.755 37.8912 124.637 43.3224 124.569 44.3504C123.812 44.4961 123.563 44.4548 122.802 44.3014C122.696 43.4292 122.807 39.7265 122.684 39.3802L122.564 39.3585C122.474 38.0073 122.436 37.0854 120.917 36.8381C119.106 36.5433 118.496 37.9724 118.473 39.5146C118.447 41.2859 118.481 43.0386 118.451 44.8013C117.597 44.8689 117.029 44.8504 116.168 44.8151C116.07 41.7866 116.113 37.9089 116.167 34.8709C116.891 34.8488 117.671 34.8769 118.4 34.8915L118.414 36.0696Z" fill="white" fill-opacity="0.956863"/>
<path d="M148.466 36.0683C149.831 34.5812 151.109 34.2605 153.041 34.9192C153.258 35.5837 154.78 36.895 154.679 37.6655C154.518 38.8959 154.977 43.3177 154.583 44.3131C154.232 44.5428 153.618 44.4617 153.221 44.38C153.126 44.3605 153.032 44.3382 152.939 44.313C152.672 43.1084 153.259 38.0285 152.422 37.5041C152.368 37.4704 152.312 37.4424 152.255 37.4152C151.546 36.9931 151.482 36.8438 150.54 36.8C149.562 36.7546 148.753 37.6487 148.651 38.5527C148.42 40.596 148.535 42.7345 148.514 44.8011C147.642 44.8613 147.126 44.8509 146.242 44.8143C146.14 41.7849 146.193 37.9034 146.24 34.8635C146.976 34.8544 147.741 34.8765 148.479 34.8885L148.466 36.0683Z" fill="white" fill-opacity="0.956863"/>
<path d="M128.371 31.8855C128.976 31.841 129.87 31.8665 130.499 31.8681C130.501 32.7762 130.482 33.818 130.548 34.7124C130.681 34.8409 131.038 34.8258 131.24 34.8367C131.542 35.087 132.007 34.9833 132.072 35.1401L131.873 35.1889C132.996 37.1314 130.863 36.5497 130.55 36.9616C130.506 37.9731 130.279 41.6567 130.848 42.5232C131.07 42.8639 132.073 42.8344 132.525 42.8444C132.536 43.2743 132.618 44.3838 132.421 44.6988C132.16 44.9179 131.893 44.9672 131.562 44.9673C130.6 44.9676 129.472 44.6709 128.778 43.9673C127.865 43.0405 128.191 38.4001 128.193 37.0341C127.631 37.0448 126.887 36.9994 126.311 36.9786L126.313 34.902C128.632 34.5977 128.342 33.9693 128.371 31.8855Z" fill="white" fill-opacity="0.956863"/>
<path d="M112.853 9.52525C113.524 9.48003 114.453 9.50869 115.144 9.51189C115.239 13.1926 115.144 16.8986 115.178 20.5817C115.189 21.8036 115.182 23.0425 115.138 24.2632C114.385 24.3102 113.605 24.2801 112.849 24.2653C112.754 19.5299 112.79 14.2722 112.853 9.52525Z" fill="white" fill-opacity="0.956863"/>
<path d="M132.953 14.3154C133.297 14.2548 133.847 14.2656 134.212 14.2617C134.234 15.0558 134.22 15.9009 134.22 16.6992C134.059 16.6853 133.897 16.681 133.735 16.6861C131.04 16.7796 130.752 18.017 130.749 20.5192C130.748 21.7584 130.704 23.034 130.76 24.2758C130.032 24.2994 129.252 24.2786 128.519 24.2703L128.437 24.2218C128.323 23.9462 128.406 15.5806 128.407 14.3964C129.22 14.3489 129.887 14.3652 130.703 14.3883C130.68 14.8194 130.716 15.4061 130.728 15.8487C130.812 15.7126 130.901 15.5796 130.993 15.45C131.541 14.6995 132.079 14.4552 132.953 14.3154Z" fill="white" fill-opacity="0.956863"/>
<path d="M83.3999 14.4208C84.0456 14.3218 84.9697 14.3667 85.6291 14.3898C85.6358 14.8982 85.6728 15.1652 85.7544 15.6698C86.3456 15.7183 86.9948 14.9267 87.7324 14.5697L88.6591 14.7001C88.7869 15.2794 88.7895 15.6498 88.7768 16.2373C87.7551 16.4088 86.7526 16.4865 86.084 17.3986C85.7384 17.8695 85.5727 18.7461 85.6753 19.301C85.6846 19.3532 85.6955 19.4052 85.7064 19.457L85.6913 24.276C84.8705 24.2923 84.2255 24.2967 83.4082 24.2436C83.315 22.8871 83.3571 21.208 83.3575 19.8164C83.3581 18.0601 83.3242 16.1605 83.3999 14.4208Z" fill="white" fill-opacity="0.956863"/>
<path d="M157.545 34.8845C158.374 34.8547 159.094 34.8676 159.925 34.8915C159.865 35.8406 159.91 37.3303 159.911 38.3141L159.909 44.7804C159.146 44.8978 158.296 44.823 157.527 44.7725C157.581 41.4965 157.483 38.176 157.545 34.8845Z" fill="white" fill-opacity="0.956863"/>
<path d="M158.4 34.9824C158.795 35.0504 159.111 35.0067 159.526 35.0946L159.353 35.1799C159.772 35.7729 159.6 38.8196 159.616 39.6921C159.641 41.0706 159.641 42.589 159.588 43.9743C159.577 44.2519 159.49 44.3101 159.299 44.4604C159.156 44.47 159.011 44.4749 158.866 44.4753C158.44 44.4786 158.149 44.4883 157.833 44.1771C157.771 43.171 157.808 41.7663 157.808 40.7175C157.796 38.9381 157.802 37.1585 157.823 35.3792C158.017 35.2307 158.196 35.1147 158.4 34.9824Z" fill="white" fill-opacity="0.956863"/>
<path d="M78.4391 14.4069C79.2348 14.3464 79.9337 14.3625 80.7324 14.3752L80.7414 21.0918C80.7416 21.6304 80.7751 23.7812 80.7098 24.1989L80.5601 24.2833C79.8125 24.2911 79.2037 24.2917 78.4592 24.2393C78.3283 22.1203 78.4648 19.6886 78.4109 17.5405C78.4018 17.1788 78.4008 14.6095 78.4391 14.4069Z" fill="white" fill-opacity="0.956863"/>
<path d="M79.3242 9.35582C79.7396 9.28462 80.1658 9.38927 80.5008 9.64491C80.9656 9.99965 81.185 10.5901 81.0643 11.1622C80.9436 11.7344 80.5045 12.186 79.9359 12.323C79.3976 12.4527 78.8313 12.2787 78.4589 11.8691C78.0864 11.4596 77.9668 10.8797 78.147 10.3563C78.3272 9.83295 78.7785 9.44946 79.3242 9.35582Z" fill="white" fill-opacity="0.956863"/>
<path d="M158.562 29.8574C159.232 29.8916 159.36 29.9697 159.91 30.3332C160.441 31.4855 160.373 32.5135 158.959 32.8784C157.285 32.877 156.98 31.7482 157.513 30.3557C157.948 30.0692 158.061 29.9902 158.562 29.8574Z" fill="white" fill-opacity="0.956863"/>
<path d="M153.039 34.9199C155.268 36.0548 155.013 38.4344 155.015 40.5633C155.017 41.9728 155.004 43.3844 154.995 44.7941C154.017 44.8605 153.562 44.8036 152.619 44.7814C152.643 42.7658 152.822 39.2045 152.254 37.4159C152.311 37.4431 152.367 37.4711 152.42 37.5048C153.257 38.0292 152.67 43.1091 152.938 44.3137C153.031 44.3389 153.124 44.3612 153.219 44.3807C153.616 44.4624 154.231 44.5435 154.582 44.3138C154.975 43.3184 154.517 38.8966 154.678 37.6662C154.779 36.8957 153.256 35.5844 153.039 34.9199Z" fill="white" fill-opacity="0.956863"/>
<path d="M123.064 34.9727C124.13 35.5463 124.841 36.7029 124.883 37.8798C124.961 40.0697 125.037 42.6193 124.93 44.7948C123.976 44.8585 123.49 44.8267 122.541 44.7751C122.61 43.0123 122.481 41.042 122.564 39.3593L122.684 39.381C122.807 39.7273 122.696 43.43 122.802 44.3022C123.563 44.4557 123.811 44.4969 124.569 44.3512C124.637 43.3232 124.755 37.8921 124.506 37.2629C124.172 36.4195 123.351 35.8314 123.073 35.0013C123.07 34.9918 123.066 34.9822 123.064 34.9727Z" fill="white" fill-opacity="0.956863"/>
<path d="M85.7537 15.6684C86.8856 14.6044 87.0437 14.2062 88.872 14.2631C88.9654 14.2661 89.0595 14.2707 89.1537 14.2766L89.1394 16.7049C86.8368 16.5704 86.0833 17.2294 85.7057 19.4555C85.6948 19.4038 85.6839 19.3517 85.6746 19.2995C85.572 18.7446 85.7377 17.868 86.0833 17.3971C86.7519 16.485 87.7543 16.4073 88.7761 16.2358C88.7887 15.6484 88.7862 15.2779 88.6584 14.6986L87.7316 14.5682C86.9941 14.9253 86.3449 15.7169 85.7537 15.6684Z" fill="white" fill-opacity="0.956863"/>
<path d="M131.24 34.8359L132.581 34.9013C132.498 35.5834 132.515 36.3266 132.514 37.0172C132.034 37.045 130.952 37.1577 130.551 36.9608C130.864 36.5489 132.997 37.1306 131.874 35.1881L132.073 35.1393C132.008 34.9825 131.543 35.0862 131.24 34.8359Z" fill="white" fill-opacity="0.956863"/>
<path d="M26.6639 0H29.2294C30.5999 0.256785 31.9485 0.225985 33.3785 0.517022C43.8183 2.64168 52.3072 10.7482 54.6742 21.1651C54.8378 21.8848 55.2184 23.2099 55.1715 23.9351C54.977 26.2218 55.0007 29.4282 55.1698 31.7242C55.0903 32.9697 54.74 34.0091 54.4103 35.1955C51.649 45.132 42.9282 53.0593 32.7344 54.7454C32.3071 54.8161 31.5472 54.8506 31.1745 54.9768H24.5812C24.3493 54.8991 22.5289 54.6857 21.952 54.5545C18.5509 53.7807 15.6548 52.5428 12.7315 50.6138C6.62043 46.5703 2.36498 40.2675 0.899945 33.0898C0.475437 31.0094 0.346264 29.552 0.397226 27.4322C0.424534 26.3524 0.33964 25.1675 0.476976 24.0987C1.80161 13.7895 9.0063 4.94891 18.7915 1.47883C19.982 1.05668 21.2842 0.828453 22.4991 0.491755C23.8928 0.105505 25.2952 0.276091 26.6639 0ZM41.2625 30.1703C40.8723 31.9324 40.6128 32.9997 39.7393 34.5922C37.4232 38.8146 33.4548 41.4145 28.6672 41.7864C28.5545 42.5607 28.6037 44.6845 28.6049 45.5654C28.6203 48.1663 28.6189 50.7674 28.6006 53.3683C34.442 53.4281 40.7749 50.7863 45.0965 46.9156C50.2387 42.3443 53.3635 35.9257 53.7893 29.0602C54.5338 15.2891 44.3192 3.35993 30.955 1.92502C30.1453 1.83807 29.4488 1.74119 28.6249 1.69719C28.5663 3.20773 28.6064 4.97589 28.607 6.50577L28.6118 15.1686L28.6162 40.1119C37.631 39.5637 42.6683 29.3423 38.1715 21.7523C38.0227 21.501 37.7085 20.9273 37.4269 20.8534C36.8019 21.5561 35.4128 22.5455 34.5007 22.8762C34.4454 22.0698 34.6117 16.5643 35.0023 16.2334C35.8231 16.03 40.5305 16.9933 41.5582 17.3097C41.3423 17.6553 41.2729 17.7464 41.0126 18.0249C40.6729 18.3885 38.9066 19.6215 38.8175 19.9488C38.732 20.4801 39.9262 22.207 40.1121 22.8584C40.2238 23.2497 40.6445 23.8507 40.7217 24.3034C40.9172 25.0498 40.9623 25.8402 41.0408 26.5779C41.1494 27.5993 40.8271 29.3578 41.2625 30.1703ZM27.0997 15.7479C19.8096 16.4241 14.8457 22.0985 15.5372 29.4086C15.7911 32.0925 17.1614 34.906 19.1432 36.7411C21.3876 38.8272 23.6046 39.8447 26.6724 40.1778C26.8538 40.1975 27.0342 40.196 27.2028 40.1213C27.2494 39.853 27.1444 39.4257 27.149 39.1296C27.1801 37.1577 27.3679 16.1855 27.1494 15.7678L27.0997 15.7479ZM26.6002 1.71776C19.4019 2.21729 12.9041 5.31049 8.17129 10.7911C-3.14643 23.897 1.89748 45.1001 18.0708 51.5317C18.5828 51.7342 19.8647 52.2454 20.3299 52.3726C21.5747 52.713 26.0849 53.7318 27.1113 53.3246C27.286 53.1106 27.212 43.0226 27.2081 41.8573C8.70077 39.9124 10.3094 14.8657 27.1656 14.2144C27.1884 12.822 27.3247 2.08863 27.1244 1.7517C26.8909 1.70795 26.8377 1.70565 26.6002 1.71776Z" fill="white" fill-opacity="0.956863"/>
<path d="M38.8188 19.9492C40.4288 21.5788 41.5212 25.768 41.4694 28.024C41.4549 28.6554 41.3789 29.5428 41.2638 30.1706C40.8284 29.3582 41.1508 27.5997 41.0421 26.5783C40.9636 25.8406 40.9186 25.0501 40.723 24.3038C40.6458 23.8511 40.2251 23.2501 40.1134 22.8588C39.9275 22.2074 38.7334 20.4805 38.8188 19.9492Z" fill="white" fill-opacity="0.956863"/>
<path d="M55.1724 23.9355C55.4497 25.6186 55.5542 30.0776 55.1707 31.7247C55.0017 29.4287 54.978 26.2222 55.1724 23.9355Z" fill="white" fill-opacity="0.956863"/>
</g>
<defs>
<clipPath id="clip0_9303_4449">
<rect width="172.232" height="54.9768" fill="white"/>
</clipPath>
</defs>
</svg>
