<svg width="44" height="44" viewBox="0 0 44 44" fill="none" xmlns="http://www.w3.org/2000/svg">
<line x1="22" y1="41.625" x2="22" y2="1.76629" stroke="black" stroke-width="1.95064"/>
<circle cx="21.8751" cy="21.8753" r="20.1097" stroke="black" stroke-width="1.95064"/>
<path d="M21.875 11.6484C16.2264 11.6484 11.6472 16.2276 11.6472 21.8763C11.6472 27.5249 16.2264 32.1041 21.875 32.1041C27.5237 32.1041 32.1029 27.5249 32.1029 21.8763C32.1029 19.528 31.3115 17.3646 29.9809 15.6382" stroke="black" stroke-width="1.95064"/>
<path d="M27.8731 12.6928C27.9607 12.3097 28.3754 12.1011 28.7351 12.2591L34.9513 14.99C35.4361 15.203 35.4539 15.8843 34.9808 16.1222L27.2521 20.0103C26.779 20.2483 26.2426 19.828 26.3606 19.3117L27.8731 12.6928Z" fill="black"/>
</svg>
