<svg width="16" height="15" viewBox="0 0 16 15" fill="none" xmlns="http://www.w3.org/2000/svg">
<path d="M9.05846 10.9486C8.21244 10.5505 7.23293 10.5505 6.38692 10.9486L0.438178 13.748C0.278595 13.8231 0.332112 14.0625 0.508482 14.0625H14.9369C15.1133 14.0625 15.1668 13.8231 15.0072 13.748L9.05846 10.9486Z" fill="#0A3876"/>
<path d="M8.40204 7.67064C8.48805 8.60168 8.98487 9.44584 9.7571 9.97301L15.187 13.6798C15.3326 13.7793 15.5118 13.6117 15.4224 13.4597L8.10402 1.02507C8.01456 0.873067 7.78109 0.948378 7.79731 1.124L8.40204 7.67064Z" fill="#0A3876"/>
<path d="M7.04431 7.66487C6.95831 8.59592 6.46148 9.44008 5.68926 9.96725L0.259372 13.6741C0.113708 13.7735 -0.0654727 13.606 0.0239853 13.454L7.34234 1.0193C7.4318 0.867303 7.66527 0.942613 7.64905 1.11824L7.04431 7.66487Z" fill="#0A3876"/>
</svg>
