<svg width="15" height="15" viewBox="0 0 15 15" fill="none" xmlns="http://www.w3.org/2000/svg">
<path d="M11.564 4.29016C13.2025 4.2902 14.5308 5.61849 14.5308 7.25696C14.5306 8.89524 13.2024 10.2237 11.564 10.2238C11.4958 10.2238 11.428 10.2195 11.3609 10.215V7.54016H8.61092C8.60207 7.44694 8.59726 7.35249 8.59724 7.25696C8.59724 5.61847 9.92555 4.29016 11.564 4.29016Z" fill="#8A2A08"/>
<path d="M7.49995 0.46875C5.86146 0.46875 4.53316 1.79706 4.53316 3.43555C4.53324 5.07397 5.86152 6.40234 7.49995 6.40234C7.56827 6.40234 7.63592 6.3981 7.70308 6.39355V3.71875H10.4531C10.4619 3.62553 10.4667 3.53108 10.4668 3.43555C10.4668 1.79706 9.13844 0.468755 7.49995 0.46875Z" fill="#8A2A08"/>
<path d="M3.4357 10.708C1.79724 10.708 0.468903 9.37968 0.468903 7.74121C0.469144 6.10295 1.79739 4.77543 3.4357 4.77539C3.50398 4.77539 3.57169 4.77866 3.63882 4.7832V7.45801H6.38882C6.39767 7.55123 6.40248 7.64568 6.4025 7.74121C6.4025 9.3797 5.07419 10.708 3.4357 10.708Z" fill="#8A2A08"/>
<path d="M7.49979 14.5312C9.13827 14.5312 10.4666 13.2029 10.4666 11.5645C10.4665 9.92604 9.13822 8.59767 7.49979 8.59766C7.43148 8.59766 7.36381 8.6019 7.29666 8.60645V11.2812H4.54666C4.53783 11.3745 4.53299 11.4689 4.53299 11.5645C4.53299 13.2029 5.8613 14.5312 7.49979 14.5312Z" fill="#8A2A08"/>
</svg>
