<svg width="15" height="15" viewBox="0 0 15 15" fill="none" xmlns="http://www.w3.org/2000/svg">
<path d="M14.5417 6.05878C14.5417 7.1195 13.6818 7.97939 12.6211 7.97939H9.42033C8.35961 7.97939 7.49973 8.83927 7.49973 9.89999V12.1398C7.49973 13.2006 6.63984 14.0604 5.57912 14.0604H2.37834C1.31762 14.0604 0.457733 13.2006 0.457733 12.1398V8.93905C0.457733 7.87833 1.31762 7.01845 2.37834 7.01845H5.57912C6.63984 7.01845 7.49973 6.15856 7.49973 5.09784V2.858C7.49973 1.79728 8.35961 0.937393 9.42033 0.937393H12.6211C13.6818 0.937393 14.5417 1.79728 14.5417 2.858V6.05878Z" fill="#7CBBA4"/>
<path d="M14.5417 8.9411C14.5417 7.88038 13.6818 7.02049 12.6211 7.02049H9.4203C8.35958 7.02049 7.49969 6.16061 7.49969 5.09989V2.85809C7.49969 1.79737 6.63981 0.937485 5.57909 0.937485H2.37831C1.31759 0.937485 0.457703 1.79737 0.457703 2.85809V6.05887C0.457703 7.11959 1.31759 7.97948 2.37831 7.97948H5.57909C6.63981 7.97948 7.49969 8.83936 7.49969 9.90008V12.1419C7.49969 13.2026 8.35958 14.0625 9.4203 14.0625H12.6211C13.6818 14.0625 14.5417 13.2026 14.5417 12.1419V8.9411Z" fill="#361808"/>
</svg>
