<svg width="15" height="15" viewBox="0 0 15 15" fill="none" xmlns="http://www.w3.org/2000/svg">
<path d="M6.89522 1.13006C7.12309 0.666417 7.78408 0.666417 8.01195 1.13006L8.45604 2.03365C8.62213 2.37157 9.04796 2.48567 9.36075 2.27606L10.1971 1.71558C10.6263 1.42799 11.1987 1.75848 11.1643 2.27395L11.0971 3.27852C11.0719 3.65421 11.3837 3.96594 11.7594 3.94081L12.7639 3.87362C13.2794 3.83914 13.6099 4.41157 13.3223 4.84073L12.7618 5.67712C12.5522 5.98992 12.6663 6.41575 13.0042 6.58183L13.9078 7.02593C14.3715 7.2538 14.3715 7.91478 13.9078 8.14266L13.0042 8.58675C12.6663 8.75283 12.5522 9.17867 12.7618 9.49146L13.3223 10.3278C13.6099 10.757 13.2794 11.3294 12.7639 11.295L11.7594 11.2278C11.3837 11.2026 11.0719 11.5144 11.0971 11.8901L11.1643 12.8946C11.1987 13.4101 10.6263 13.7406 10.1971 13.453L9.36075 12.8925C9.04796 12.6829 8.62213 12.797 8.45604 13.1349L8.01195 14.0385C7.78408 14.5022 7.12309 14.5022 6.89522 14.0385L6.45113 13.1349C6.28504 12.797 5.85921 12.6829 5.54642 12.8925L4.71003 13.453C4.28086 13.7406 3.70843 13.4101 3.74291 12.8946L3.81011 11.8901C3.83524 11.5144 3.52351 11.2026 3.14781 11.2278L2.14324 11.295C1.62778 11.3294 1.29728 10.757 1.58487 10.3278L2.14536 9.49146C2.35496 9.17867 2.24086 8.75283 1.90294 8.58675L0.999353 8.14266C0.53571 7.91478 0.53571 7.2538 0.999353 7.02593L1.90294 6.58183C2.24086 6.41575 2.35496 5.98992 2.14536 5.67712L1.58487 4.84073C1.29728 4.41157 1.62778 3.83914 2.14324 3.87362L3.14781 3.94081C3.52351 3.96594 3.83524 3.65421 3.81011 3.27852L3.74291 2.27395C3.70843 1.75848 4.28086 1.42799 4.71003 1.71558L5.54642 2.27606C5.85921 2.48567 6.28504 2.37157 6.45113 2.03365L6.89522 1.13006Z" fill="#0C2E3D"/>
<path d="M7.13268 3.80051C7.27209 3.51686 7.67648 3.51686 7.81589 3.80051L8.06271 4.30272C8.16432 4.50946 8.42484 4.57927 8.6162 4.45103L9.08106 4.13952C9.34362 3.96357 9.69383 4.16576 9.67273 4.48112L9.63539 5.03946C9.62001 5.2693 9.81073 5.46001 10.0406 5.44464L10.5989 5.40729C10.9143 5.3862 11.1165 5.7364 10.9405 5.99896L10.629 6.46382C10.5008 6.65519 10.5706 6.91571 10.7773 7.01731L11.2795 7.26414C11.5632 7.40355 11.5632 7.80793 11.2795 7.94734L10.7773 8.19417C10.5706 8.29577 10.5008 8.55629 10.629 8.74766L10.9405 9.21252C11.1165 9.47507 10.9143 9.82528 10.5989 9.80419L10.0406 9.76684C9.81073 9.75147 9.62001 9.94218 9.63539 10.172L9.67273 10.7304C9.69383 11.0457 9.34362 11.2479 9.08106 11.072L8.6162 10.7604C8.42484 10.6322 8.16432 10.702 8.06271 10.9088L7.81589 11.411C7.67648 11.6946 7.27209 11.6946 7.13268 11.411L6.88586 10.9088C6.78425 10.702 6.52373 10.6322 6.33237 10.7604L5.86751 11.072C5.60495 11.2479 5.25474 11.0457 5.27584 10.7304L5.31318 10.172C5.32856 9.94218 5.13785 9.75147 4.908 9.76684L4.34966 9.80419C4.03431 9.82528 3.83212 9.47507 4.00806 9.21252L4.31957 8.74766C4.44781 8.55629 4.37801 8.29577 4.17127 8.19417L3.66906 7.94734C3.38541 7.80793 3.38541 7.40355 3.66906 7.26414L4.17127 7.01731C4.37801 6.91571 4.44781 6.65519 4.31957 6.46382L4.00806 5.99896C3.83212 5.7364 4.03431 5.3862 4.34966 5.40729L4.908 5.44464C5.13784 5.46001 5.32856 5.2693 5.31318 5.03946L5.27584 4.48112C5.25474 4.16576 5.60495 3.96357 5.86751 4.13952L6.33237 4.45103C6.52373 4.57927 6.78425 4.50946 6.88586 4.30272L7.13268 3.80051Z" fill="#C8C478"/>
<path d="M7.25042 4.83496C7.29454 4.61217 7.61316 4.61217 7.65729 4.83496L7.74986 5.30234C7.78329 5.47117 7.99595 5.52815 8.10932 5.39866L8.42318 5.04018C8.57279 4.8693 8.84872 5.02861 8.77554 5.24361L8.62201 5.69466C8.56656 5.85759 8.72224 6.01327 8.88516 5.95781L9.33621 5.80429C9.55122 5.7311 9.71053 6.00703 9.53965 6.15664L9.18116 6.4705C9.05167 6.58387 9.10866 6.79653 9.27748 6.82997L9.74487 6.92254C9.96766 6.96666 9.96766 7.28528 9.74487 7.32941L9.27748 7.42197C9.10866 7.45541 9.05167 7.66807 9.18116 7.78144L9.53965 8.0953C9.71053 8.24491 9.55122 8.52084 9.33621 8.44766L8.88516 8.29413C8.72224 8.23868 8.56656 8.39435 8.62201 8.55728L8.77554 9.00833C8.84872 9.22334 8.57279 9.38265 8.42318 9.21177L8.10932 8.85328C7.99595 8.72379 7.78329 8.78078 7.74986 8.9496L7.65729 9.41699C7.61316 9.63978 7.29454 9.63978 7.25042 9.41699L7.15785 8.9496C7.12441 8.78078 6.91175 8.72379 6.79838 8.85328L6.48453 9.21177C6.33492 9.38265 6.05898 9.22334 6.13217 9.00833L6.28569 8.55728C6.34115 8.39435 6.18547 8.23868 6.02254 8.29413L5.57149 8.44766C5.35649 8.52084 5.19718 8.24491 5.36806 8.0953L5.72654 7.78144C5.85603 7.66807 5.79905 7.45541 5.63022 7.42197L5.16284 7.32941C4.94005 7.28528 4.94005 6.96666 5.16284 6.92254L5.63022 6.82997C5.79905 6.79653 5.85603 6.58387 5.72654 6.4705L5.36806 6.15664C5.19718 6.00703 5.35649 5.7311 5.57149 5.80429L6.02254 5.95781C6.18547 6.01327 6.34115 5.85759 6.28569 5.69466L6.13217 5.24361C6.05898 5.02861 6.33492 4.8693 6.48453 5.04018L6.79838 5.39866C6.91175 5.52815 7.12441 5.47117 7.15785 5.30234L7.25042 4.83496Z" fill="#0C2E3D"/>
</svg>
