<svg width="15" height="15" viewBox="0 0 15 15" fill="none" xmlns="http://www.w3.org/2000/svg">
<path d="M7.41634 1.98581C7.41634 3.69951 6.0271 5.08875 4.3134 5.08875H3.05545V4.04046C3.05545 2.32675 4.44468 0.937516 6.15839 0.937516H7.41634V1.98581Z" fill="#321040"/>
<path d="M7.41634 8.35915C7.41634 6.64544 6.0271 5.25621 4.3134 5.25621H3.05545V6.3045C3.05545 8.01821 4.44468 9.40744 6.15839 9.40744H7.41634V8.35915Z" fill="#321040"/>
<path d="M7.58382 1.98581C7.58382 3.69951 8.97305 5.08875 10.6868 5.08875H11.9447V4.04046C11.9447 2.32675 10.5555 0.937516 8.84176 0.937516H7.58382V1.98581Z" fill="#321040"/>
<path d="M7.58382 8.35915C7.58382 6.64544 8.97305 5.25621 10.6868 5.25621H11.9447V6.3045C11.9447 8.01821 10.5555 9.40744 8.84176 9.40744H7.58382V8.35915Z" fill="#321040"/>
<path d="M7.58389 13.0142C7.58389 11.3005 8.97313 9.9113 10.6868 9.9113H11.9448V10.9596C11.9448 12.6733 10.5555 14.0625 8.84184 14.0625H7.58389V13.0142Z" fill="#321040"/>
<path d="M7.4164 13.0142C7.4164 11.3005 6.02716 9.9113 4.31346 9.9113H3.05551V10.9596C3.05551 12.6733 4.44474 14.0625 6.15845 14.0625H7.4164V13.0142Z" fill="#321040"/>
</svg>
