<svg width="15" height="15" viewBox="0 0 15 15" fill="none" xmlns="http://www.w3.org/2000/svg">
<path d="M7.82085 5.59315C7.74661 5.8226 7.42199 5.8226 7.34776 5.59315L5.8663 1.0141C5.81435 0.853523 5.93407 0.688952 6.10284 0.688952H9.06576C9.23453 0.688952 9.35426 0.853523 9.30231 1.0141L7.82085 5.59315Z" fill="#0A3876"/>
<path d="M7.82085 9.37574C7.74661 9.14628 7.42199 9.14628 7.34776 9.37574L5.8663 13.9548C5.81435 14.1154 5.93407 14.2799 6.10284 14.2799H9.06576C9.23453 14.2799 9.35426 14.1154 9.30231 13.9548L7.82085 9.37574Z" fill="#0A3876"/>
<path d="M9.06583 7.67959C8.83695 7.60362 8.8394 7.27901 9.0694 7.20651L13.6595 5.75968C13.8205 5.70894 13.9841 5.82991 13.9829 5.99868L13.9605 8.96151C13.9592 9.13027 13.7937 9.24875 13.6336 9.19559L9.06583 7.67959Z" fill="#0A3876"/>
<path d="M6.20526 7.72508C6.43414 7.64912 6.43169 7.3245 6.20168 7.252L1.61157 5.80517C1.45061 5.75444 1.28695 5.8754 1.28822 6.04417L1.3106 9.007C1.31188 9.17577 1.47735 9.29425 1.63753 9.24108L6.20526 7.72508Z" fill="#0A3876"/>
<path d="M8.71068 6.87481C8.34961 7.06257 7.9625 6.6717 8.15375 6.31246L10.7312 1.47085C10.8111 1.32087 10.9744 1.23484 11.1432 1.25379L13.1985 1.48447C13.3832 1.50521 13.5316 1.6465 13.5613 1.83005L13.89 3.86098C13.9185 4.03744 13.8307 4.21233 13.6721 4.2948L8.71068 6.87481Z" fill="#0A3876"/>
<path d="M8.71614 8.168C8.35507 7.98024 7.96796 8.37111 8.15921 8.73035L10.7367 13.572C10.8165 13.7219 10.9798 13.808 11.1487 13.789L13.2039 13.5583C13.3887 13.5376 13.537 13.3963 13.5668 13.2128L13.8954 11.1818C13.924 11.0054 13.8362 10.8305 13.6776 10.748L8.71614 8.168Z" fill="#0A3876"/>
<path d="M6.28389 8.168C6.64496 7.98024 7.03207 8.37111 6.84082 8.73035L4.26332 13.572C4.18348 13.7219 4.02018 13.808 3.85134 13.789L1.7961 13.5583C1.61132 13.5376 1.46298 13.3963 1.43328 13.2128L1.10459 11.1818C1.07603 11.0054 1.16386 10.8305 1.32246 10.748L6.28389 8.168Z" fill="#0A3876"/>
<path d="M6.5308 6.85841C6.89217 7.04699 7.28007 6.65527 7.08796 6.29577L4.48944 1.43302C4.40967 1.28373 4.24711 1.19798 4.07885 1.21642L2.01765 1.44229C1.83203 1.46263 1.68295 1.60461 1.65358 1.78901L1.32932 3.82494C1.30129 4.00088 1.38887 4.17504 1.54682 4.25747L6.5308 6.85841Z" fill="#0A3876"/>
</svg>
