<svg width="15" height="15" viewBox="0 0 15 15" fill="none" xmlns="http://www.w3.org/2000/svg">
<path d="M5.30368 0.46875L2.02368 3.80948C2.39895 4.34275 3.89676 4.75159 4.99334 4.96748C5.44044 5.0555 5.89854 5.08381 6.35163 5.03521C9.50722 4.69672 10.8717 2.97963 11.1651 2.10875C7.88515 3.85808 5.89084 1.7443 5.30368 0.46875Z" fill="#5E0F1A"/>
<path d="M9.70736 14.5312L12.9874 11.1905C12.6121 10.6572 11.1143 10.2484 10.0177 10.0325C9.57059 9.9445 9.11249 9.91619 8.65941 9.96479C5.50382 10.3033 4.13934 12.0204 3.84589 12.8913C7.12588 11.1419 9.1202 13.2557 9.70736 14.5312Z" fill="#5E0F1A"/>
<path d="M0.435224 9.68217L3.8047 12.9326C4.33465 12.5527 4.73028 11.0513 4.93651 9.9529C5.02059 9.50504 5.04487 9.0467 4.99228 8.59406C4.62602 5.44158 2.89699 4.09226 2.02356 3.80649C3.8017 7.07096 1.70556 9.0838 0.435224 9.68217Z" fill="#5E0F1A"/>
<path d="M14.5648 5.35811L11.1954 2.10765C10.6654 2.4876 10.2698 3.98895 10.0636 5.08739C9.97947 5.53525 9.95519 5.99358 10.0078 6.44622C10.374 9.59871 12.1031 10.948 12.9765 11.2338C11.1984 7.96933 13.2945 5.95648 14.5648 5.35811Z" fill="#5E0F1A"/>
</svg>
