<svg width="15" height="15" viewBox="0 0 15 15" fill="none" xmlns="http://www.w3.org/2000/svg">
<path d="M12.4846 13.8098C12.3891 13.9673 12.2183 14.0635 12.0342 14.0635H8.4451C8.28022 14.0635 8.12486 13.9863 8.0253 13.8548L5.53212 10.5634C5.26938 10.2165 5.51679 9.71875 5.95192 9.71875H14.0287C14.4391 9.71875 14.6918 10.1674 14.4791 10.5183L12.4846 13.8098ZM7.28579 4.98318C7.72094 4.98568 7.96548 5.4849 7.70072 5.83024L2.78644 12.2403C2.53673 12.5661 2.02693 12.4936 1.87783 12.1112L0.479591 8.5254C0.412688 8.35382 0.440268 8.15976 0.552324 8.01362L2.73602 5.16569C2.83633 5.03487 2.99211 4.95857 3.15696 4.95951L7.28579 4.98318ZM10.9231 1.07988C11.1071 1.08667 11.2742 1.18909 11.3638 1.34999L13.1097 4.48615C13.1899 4.63021 13.198 4.80351 13.1316 4.95443L11.4685 8.7342C11.2933 9.13249 10.738 9.15846 10.5263 8.77826L6.59713 1.72028C6.39751 1.36169 6.66658 0.922684 7.07671 0.93783L10.9231 1.07988Z" fill="#123D38"/>
</svg>
