<svg width="15" height="15" viewBox="0 0 15 15" fill="none" xmlns="http://www.w3.org/2000/svg">
<path d="M7.50268 4.18499L4.57208 1.24566C4.4024 1.07547 4.12688 1.07506 3.95669 1.24474L0.929988 4.26243L0.919647 4.25213L0.973696 10.7812L3.95713 13.7553C4.12733 13.9249 4.40286 13.9245 4.57253 13.7543L7.50288 10.8147L4.17775 7.50002L7.50268 4.18499Z" fill="#8A2A08"/>
<path d="M7.80409 11.1232L10.4274 13.7543C10.5971 13.9245 10.8727 13.9249 11.0428 13.7553L14.0695 10.7376L14.0799 10.7479L14.0258 4.21882L11.0424 1.24475C10.8722 1.07507 10.5967 1.07551 10.427 1.24571L7.80386 3.8771C7.63419 4.04731 7.63463 4.32283 7.80483 4.4925L10.8218 7.49998L7.80501 10.5078C7.63482 10.6775 7.63441 10.953 7.80409 11.1232Z" fill="#8A2A08"/>
</svg>
