<svg width="15" height="15" viewBox="0 0 15 15" fill="none" xmlns="http://www.w3.org/2000/svg">
<path d="M7.49976 0.9375C8.64213 0.9375 9.56897 1.86352 9.56909 3.00586C9.56909 3.81528 9.10365 4.51444 8.42608 4.85352C8.09784 5.01778 7.82104 5.31749 7.82104 5.68453C7.82104 6.25219 8.43063 6.61121 8.92708 6.33594L8.95169 6.3223C9.28846 6.13556 9.41646 5.72432 9.39395 5.33989C9.39159 5.29949 9.39039 5.25877 9.39038 5.21777C9.39038 4.07541 10.3164 3.14954 11.4587 3.14941C12.6012 3.14941 13.5271 4.07533 13.5271 5.21777C13.527 6.3601 12.6011 7.28613 11.4587 7.28613C11.0415 7.28609 10.6535 7.16222 10.3288 6.9495C10.032 6.75506 9.64967 6.66918 9.33936 6.84124L9.31104 6.85694C8.81455 7.13224 8.81461 7.84617 9.31115 8.12139C9.61922 8.29214 9.99924 8.20287 10.2893 8.00307C10.6218 7.77405 11.0245 7.6397 11.4587 7.63965C12.6012 7.63965 13.5271 8.56654 13.5271 9.70898C13.527 10.8513 12.6011 11.7773 11.4587 11.7773C10.3165 11.7772 9.39053 10.8512 9.39038 9.70898C9.39038 9.67798 9.39108 9.64714 9.39247 9.61648C9.40955 9.23892 9.27717 8.83645 8.94671 8.65304C8.4448 8.37449 7.82104 8.73343 7.82104 9.30746C7.82104 9.67854 8.10108 9.98145 8.43235 10.1487C9.10642 10.489 9.56891 11.1864 9.56909 11.9932C9.56909 13.1356 8.6422 14.0625 7.49976 14.0625C6.35746 14.0623 5.4314 13.1355 5.4314 11.9932C5.43157 11.1849 5.89556 10.4858 6.57159 10.1459C6.90114 9.98029 7.17944 9.67797 7.17944 9.30913C7.17944 8.7405 6.56888 8.37842 6.07152 8.65405C5.74216 8.83659 5.61694 9.23785 5.64107 9.61364C5.64384 9.65678 5.64525 9.70029 5.64526 9.74414C5.64526 10.8866 4.71935 11.8135 3.5769 11.8135C2.43446 11.8135 1.50854 10.8866 1.50854 9.74414C1.5088 8.60191 2.43462 7.67579 3.5769 7.67578C3.99882 7.67578 4.39128 7.80217 4.71847 8.01909C5.01064 8.2128 5.39249 8.29576 5.69908 8.12581C6.1953 7.85075 6.2039 7.1325 5.7077 6.85741C5.39719 6.68526 5.01396 6.77743 4.72334 6.98137C4.38873 7.21619 3.98178 7.35443 3.54175 7.35449C2.39939 7.35449 1.47255 6.42846 1.47241 5.28613C1.47241 4.14369 2.3993 3.21777 3.54175 3.21777C4.68405 3.21794 5.61011 4.14379 5.61011 5.28613C5.6101 5.31136 5.60962 5.33646 5.60867 5.36145C5.59438 5.73586 5.72283 6.13101 6.05053 6.31267L6.07968 6.32883C6.57335 6.60249 7.17944 6.24548 7.17944 5.68104C7.17944 5.31602 6.90422 5.01793 6.5775 4.85516C5.89819 4.51672 5.4314 3.81662 5.4314 3.00586C5.43152 1.86363 6.35754 0.937681 7.49976 0.9375Z" fill="#123D38"/>
</svg>
