<svg width="15" height="15" viewBox="0 0 15 15" fill="none" xmlns="http://www.w3.org/2000/svg">
<path d="M8.79625 4.25836L11.142 1.92438L13.0209 3.81305L10.6449 6.17633L13.9379 6.14215L13.9662 8.80719L10.5287 8.84235L12.9652 11.2349L11.098 13.1363L7.35094 9.4566L7.33531 9.47321L6.28648 8.41949L6.28453 8.42145L6.16148 8.29352L5.95055 8.0816L5.6859 7.82184L5.68785 7.81793L5.45543 7.58453L5.46617 7.57281L1.92711 3.90387L3.84508 2.05426L6.13219 4.42438L6.1068 0.882385L8.77184 0.862854L8.79625 4.25836Z" fill="#332F23"/>
<rect x="0.973923" y="6.21631" width="7.77235" height="2.63966" fill="#A6A29A"/>
<rect x="1.92702" y="11.205" width="6.96969" height="2.63966" transform="rotate(-43.5536 1.92702 11.205)" fill="#A6A29A"/>
<rect x="6.10654" y="14.0624" width="7.84567" height="2.63966" transform="rotate(-90 6.10654 14.0624)" fill="#A6A29A"/>
</svg>
