<svg width="15" height="14" viewBox="0 0 15 14" fill="none" xmlns="http://www.w3.org/2000/svg">
<path d="M7.65345 5.2006C7.58339 5.41715 7.27702 5.41715 7.20696 5.2006L5.80882 0.879051C5.75979 0.727505 5.87278 0.572189 6.03206 0.572189H8.82836C8.98764 0.572189 9.10063 0.727505 9.0516 0.879052L7.65345 5.2006Z" fill="#1D655D"/>
<path d="M7.65345 8.7701C7.58339 8.55356 7.27702 8.55356 7.20696 8.7701L5.80882 13.0917C5.75979 13.2432 5.87278 13.3985 6.03206 13.3985H8.82836C8.98764 13.3985 9.10063 13.2432 9.0516 13.0917L7.65345 8.7701Z" fill="#1D655D"/>
<path d="M8.82876 7.16994C8.61275 7.09824 8.61506 6.79188 8.83213 6.72346L13.1641 5.358C13.316 5.31011 13.4705 5.42428 13.4693 5.58355L13.4482 8.37977C13.447 8.53904 13.2908 8.65086 13.1396 8.60069L8.82876 7.16994Z" fill="#1D655D"/>
<path d="M6.12901 7.21291C6.34502 7.14121 6.3427 6.83485 6.12563 6.76643L1.79365 5.40096C1.64174 5.35308 1.48728 5.46724 1.48848 5.62652L1.5096 8.42273C1.5108 8.58201 1.66697 8.69383 1.81814 8.64366L6.12901 7.21291Z" fill="#1D655D"/>
<path d="M8.49327 6.41054C8.15251 6.58774 7.78717 6.21885 7.96765 5.87982L10.4002 1.31047C10.4756 1.16893 10.6297 1.08773 10.789 1.10562L12.7287 1.32333C12.9031 1.3429 13.0431 1.47624 13.0711 1.64947L13.3813 3.56619C13.4083 3.73273 13.3254 3.89779 13.1757 3.97562L8.49327 6.41054Z" fill="#1D655D"/>
<path d="M8.4984 7.63243C8.15763 7.45523 7.79229 7.82412 7.97278 8.16315L10.4053 12.7325C10.4807 12.874 10.6348 12.9552 10.7941 12.9373L12.7338 12.7196C12.9082 12.7001 13.0482 12.5667 13.0762 12.3935L13.3864 10.4768C13.4134 10.3102 13.3305 10.1452 13.1808 10.0673L8.4984 7.63243Z" fill="#1D655D"/>
<path d="M6.20302 7.63243C6.54378 7.45523 6.90912 7.82412 6.72863 8.16315L4.29608 12.7325C4.22073 12.874 4.06662 12.9552 3.90727 12.9373L1.96761 12.7196C1.79322 12.7001 1.65322 12.5667 1.62519 12.3935L1.31499 10.4768C1.28803 10.3102 1.37092 10.1452 1.5206 10.0673L6.20302 7.63243Z" fill="#1D655D"/>
<path d="M6.43593 6.39603C6.77697 6.57401 7.14306 6.20432 6.96175 5.86503L4.50937 1.27575C4.43408 1.13485 4.28066 1.05392 4.12186 1.07132L2.17657 1.28449C2.00139 1.30369 1.8607 1.43768 1.83298 1.61172L1.52695 3.53315C1.5005 3.6992 1.58316 3.86357 1.73222 3.94136L6.43593 6.39603Z" fill="#1D655D"/>
</svg>
